<svg width="11" height="20" viewBox="0 0 11 20" fill="none" xmlns="http://www.w3.org/2000/svg">
<path d="M11 10C11 9.47486 10.9907 8.98192 10.9722 8.52613H5.37489V11.7018H7.98821C7.87237 13.8865 7.51095 15.3877 6.91554 16.163C6.40586 16.8244 5.83825 16.8244 5.5 16.8244C4.74242 16.8244 2.97009 16.8244 2.97009 10C2.97009 3.17562 4.74242 3.17563 5.5 3.17563C6.08846 3.17563 7.30707 3.17563 7.8075 6.44043H10.8077C10.6502 5.17463 10.3953 4.13178 10.0246 3.25241C8.89869 0.564775 6.94334 0 5.5 0C4.05666 0 2.09899 0.564775 0.975359 3.25241C0.310448 4.84023 0 6.98291 0 10C0 13.0171 0.310448 15.1598 0.975359 16.7476C2.10131 19.4352 4.05666 20 5.5 20C6.94334 20 8.90101 19.4352 10.0246 16.7476C10.6896 15.1622 11 13.0171 11 10Z" fill="white"/>
</svg>
